# xmcd
#
# Track frame offsets: 
#        150
#        12910
#        22064
#        41653
#        52908
#        64441
#        77390
#        88860
#        105421
#        119598
#        138142
#        154555
#        166938
#
# Disc length: 2387 seconds
#
# Revision: 0
# Processed by: cddbd v1.5.2PL0 Copyright (c) Steve Scherf et al.
# Submitted via: ExactAudioCopyFreeDBPlugin 1.0
#
DISCID=9d09510d
DTITLE=Kris Kristofferson - The Cedar Creek Sessions - CD1
DYEAR=2016
DGENRE=Country
TTITLE0=Duvalier's Dream
TTITLE1=The Loving Gift (with Sheryl Crow)
TTITLE2=The Sabre and The Rose
TTITLE3=The Law Is For The Protection Of The People
TTITLE4=It No Longer Matters What I Do
TTITLE5=Stagger Mountain Tragedy
TTITLE6=The Wife You Save
TTITLE7=Lay Me Down and Love The World Away
TTITLE8=The Bigger The Fool (The Harder They Fall)
TTITLE9=Sunday Mornin' Comin' Down
TTITLE10=Spooky Lady's Revenge
TTITLE11=Forever In Your Love
TTITLE12=Winter
EXTD=
EXTT0=
EXTT1=
EXTT2=
EXTT3=
EXTT4=
EXTT5=
EXTT6=
EXTT7=
EXTT8=
EXTT9=
EXTT10=
EXTT11=
EXTT12=
PLAYORDER=
